<svg width="393" height="244" viewBox="0 0 393 244" fill="none" xmlns="http://www.w3.org/2000/svg">
<path d="M297.411 122.206C297.411 66.3113 252.1 21 196.205 21C140.311 21 95 66.3113 95 122.206C95 178.1 140.311 223.411 196.206 223.411C252.1 223.411 297.411 178.1 297.411 122.206Z" fill="#EDEDED"/>
<g clip-path="url(#clip0_2_5695)">
<path d="M245.754 186.411C247.816 186.411 249.503 184.737 249.503 182.661V166.328H256.25C258.321 166.328 260 164.649 260 162.578V90.2777C260 88.2067 258.321 86.5277 256.25 86.5277H191.983C189.912 86.5277 188.233 88.2067 188.233 90.2777V162.578C188.233 164.649 189.912 166.328 191.983 166.328H224.117L243.101 185.312C243.819 186.03 244.778 186.411 245.754 186.411Z" fill="#8C8FFF"/>
<path d="M245.754 186.411C247.817 186.411 249.503 184.737 249.503 182.661V166.328H256.25C258.321 166.328 260 164.649 260 162.578V90.2777C260 88.2067 258.321 86.5277 256.25 86.5277H224.117V166.328L243.102 185.312C243.819 186.03 244.778 186.411 245.754 186.411Z" fill="#8C8FFF"/>
<path d="M239.805 141.585L232.746 113.345C231.754 109.38 228.207 106.611 224.115 106.611C220.027 106.611 216.48 109.38 215.488 113.346L208.429 141.585C207.927 143.594 209.149 145.63 211.158 146.132C213.167 146.634 215.203 145.413 215.705 143.404L217.003 138.211H231.231L232.529 143.404C233.032 145.413 235.068 146.634 237.077 146.132C239.086 145.63 240.308 143.594 239.805 141.585ZM218.878 130.711L222.765 115.164C222.92 114.544 223.475 114.111 224.119 114.111C224.759 114.111 225.315 114.544 225.47 115.164L229.356 130.711H218.878Z" fill="#F5FAFF"/>
<path d="M146.246 158.294C144.184 158.294 142.497 156.621 142.497 154.544V138.211H135.75C133.679 138.211 132 136.532 132 134.461V62.161C132 60.09 133.679 58.411 135.75 58.411H200.017C202.088 58.411 203.767 60.09 203.767 62.161V134.461C203.767 136.532 202.088 138.211 200.017 138.211H167.883L148.899 157.196C148.181 157.914 147.222 158.294 146.246 158.294Z" fill="#FF7A00"/>
<path d="M200.016 58.411H167.883V138.211H200.016C202.087 138.211 203.766 136.532 203.766 134.461V62.161C203.766 60.09 202.087 58.411 200.016 58.411Z" fill="#FF7A00"/>
<path d="M185.015 114.799C180.74 113.533 176.777 111.461 173.323 108.735C177.942 103.44 181.297 97.048 182.993 90.0113H183.95C186.021 90.0113 187.7 88.3323 187.7 86.2613C187.7 84.1903 186.021 82.5113 183.95 82.5113H171.633V78.2278C171.633 76.1568 169.954 74.4778 167.883 74.4778C165.812 74.4778 164.133 76.1568 164.133 78.2278V82.511H151.816C149.745 82.511 148.067 84.19 148.067 86.261C148.067 88.332 149.745 90.011 151.816 90.011H175.228C173.757 95.0185 171.188 99.58 167.883 103.462C167.105 102.513 166.45 101.532 165.772 100.499L162.985 96.253C161.848 94.5218 159.523 94.0395 157.792 95.1763C156.06 96.313 155.579 98.638 156.715 100.369L159.502 104.614C160.432 106.031 161.444 107.382 162.527 108.667C157.299 112.728 152.493 114.217 150.636 114.835C148.67 115.487 147.605 117.609 148.257 119.575C148.779 121.149 150.243 122.145 151.816 122.145C152.962 122.145 160.724 119.798 167.883 113.982C175.037 119.912 182.785 122.145 183.951 122.145C185.569 122.145 187.062 121.089 187.545 119.459C188.134 117.474 187.001 115.387 185.015 114.799Z" fill="#F5FAFF"/>
<path d="M185.015 114.799C180.74 113.533 176.777 111.461 173.323 108.735C177.942 103.44 181.297 97.048 182.993 90.0113H183.95C186.021 90.0113 187.7 88.3323 187.7 86.2613C187.7 84.1903 186.021 82.5113 183.95 82.5113H171.633V78.2278C171.633 76.1568 169.954 74.4778 167.883 74.4778V90.0113H175.228C173.756 95.0188 171.188 99.5803 167.883 103.462V113.983C175.037 119.912 182.785 122.146 183.951 122.146C185.569 122.146 187.062 121.09 187.545 119.46C188.133 117.474 187 115.387 185.015 114.799Z" fill="white"/>
<path d="M232.528 143.404C233.03 145.413 235.066 146.635 237.076 146.132C239.085 145.63 240.307 143.594 239.804 141.585L232.745 113.346C231.754 109.381 228.207 106.612 224.116 106.611V114.111C224.117 114.111 224.117 114.111 224.118 114.111C224.758 114.111 225.314 114.544 225.469 115.165L229.355 130.711H224.116V138.211H231.23L232.528 143.404Z" fill="white"/>
</g>
<defs>
<clipPath id="clip0_2_5695">
<rect width="128" height="128" fill="white" transform="translate(132 58.411)"/>
</clipPath>
</defs>
</svg>
