<svg width="297" height="296" viewBox="0 0 297 296" fill="none" xmlns="http://www.w3.org/2000/svg">
<g clip-path="url(#clip0_2_5590)">
<rect width="296" height="296" transform="translate(0.5)" fill="white"/>
<path d="M242.114 233.614C293.589 182.138 293.589 98.68 242.114 47.2045C190.638 -4.27094 107.18 -4.27095 55.7046 47.2045C4.2291 98.68 4.2291 182.138 55.7046 233.614C107.18 285.089 190.638 285.089 242.114 233.614Z" fill="#EDEDED"/>
<path d="M268.816 195.902C268.816 196.208 268.725 196.507 268.555 196.762C268.385 197.017 268.143 197.215 267.86 197.332C267.577 197.449 267.266 197.48 266.966 197.42C266.666 197.361 266.39 197.213 266.173 196.997C265.957 196.78 265.809 196.504 265.749 196.204C265.69 195.904 265.72 195.592 265.838 195.309C265.955 195.027 266.153 194.785 266.408 194.615C266.662 194.445 266.962 194.354 267.268 194.354C267.471 194.353 267.673 194.392 267.861 194.47C268.049 194.547 268.22 194.661 268.364 194.805C268.508 194.949 268.622 195.12 268.7 195.308C268.777 195.497 268.817 195.698 268.816 195.902Z" fill="#F3F3FF"/>
<path d="M268.935 188.343C268.936 188.649 268.847 188.949 268.677 189.205C268.508 189.46 268.267 189.66 267.984 189.778C267.701 189.896 267.39 189.927 267.089 189.868C266.788 189.809 266.512 189.662 266.295 189.446C266.077 189.23 265.929 188.954 265.869 188.654C265.809 188.353 265.839 188.041 265.956 187.758C266.073 187.475 266.272 187.233 266.526 187.062C266.781 186.892 267.081 186.801 267.387 186.801C267.59 186.8 267.791 186.839 267.979 186.917C268.167 186.994 268.337 187.107 268.481 187.25C268.625 187.394 268.739 187.564 268.817 187.751C268.895 187.939 268.935 188.14 268.935 188.343Z" fill="#F3F3FF"/>
<path d="M268.935 180.79C268.936 181.097 268.847 181.397 268.677 181.652C268.508 181.908 268.267 182.107 267.984 182.225C267.701 182.343 267.39 182.375 267.089 182.316C266.788 182.257 266.512 182.11 266.295 181.893C266.077 181.677 265.929 181.401 265.869 181.101C265.809 180.8 265.839 180.489 265.956 180.206C266.073 179.922 266.272 179.68 266.526 179.51C266.781 179.339 267.081 179.248 267.387 179.248C267.59 179.248 267.791 179.287 267.979 179.364C268.167 179.441 268.337 179.555 268.481 179.698C268.625 179.841 268.739 180.011 268.817 180.199C268.895 180.386 268.935 180.587 268.935 180.79Z" fill="#F3F3FF"/>
<path d="M252.965 218.817H197.019C196.025 218.817 195.22 219.622 195.22 220.616V234.981C195.22 235.975 196.025 236.78 197.019 236.78H252.965C253.958 236.78 254.764 235.975 254.764 234.981V220.616C254.764 219.622 253.958 218.817 252.965 218.817Z" fill="#FD9090"/>
<path opacity="0.49" d="M251.68 227.542H203.431C203.147 227.542 202.917 227.772 202.917 228.056V229.083C202.917 229.367 203.147 229.597 203.431 229.597H251.68C251.964 229.597 252.194 229.367 252.194 229.083V228.056C252.194 227.772 251.964 227.542 251.68 227.542Z" fill="white"/>
<path opacity="0.49" d="M234.325 231.133H203.331C203.102 231.133 202.917 231.318 202.917 231.547V232.775C202.917 233.004 203.102 233.189 203.331 233.189H234.325C234.553 233.189 234.738 233.004 234.738 232.775V231.547C234.738 231.318 234.553 231.133 234.325 231.133Z" fill="white"/>
<path d="M233.309 222.408H203.324C203.099 222.408 202.917 222.591 202.917 222.816V224.057C202.917 224.282 203.099 224.464 203.324 224.464H233.309C233.534 224.464 233.717 224.282 233.717 224.057V222.816C233.717 222.591 233.534 222.408 233.309 222.408Z" fill="white"/>
<path d="M269.979 43.9171H73.8172C70.0613 43.9171 67.0166 46.9618 67.0166 50.7177V205.711C67.0166 209.467 70.0613 212.512 73.8172 212.512H269.979C273.735 212.512 276.779 209.467 276.779 205.711V50.7177C276.779 46.9618 273.735 43.9171 269.979 43.9171Z" fill="#8C8FFF"/>
<path d="M264.943 44.2783H71.8641C68.3472 44.2783 65.4961 47.1294 65.4961 50.6464V203.085C65.4961 206.602 68.3472 209.453 71.8641 209.453H264.943C268.46 209.453 271.311 206.602 271.311 203.085V50.6464C271.311 47.1294 268.46 44.2783 264.943 44.2783Z" fill="white"/>
<mask id="mask0_2_5590" style="mask-type:luminance" maskUnits="userSpaceOnUse" x="65" y="44" width="207" height="166">
<path d="M264.943 44.2783H71.8641C68.3472 44.2783 65.4961 47.1294 65.4961 50.6464V203.085C65.4961 206.602 68.3472 209.453 71.8641 209.453H264.943C268.46 209.453 271.311 206.602 271.311 203.085V50.6464C271.311 47.1294 268.46 44.2783 264.943 44.2783Z" fill="white"/>
</mask>
<g mask="url(#mask0_2_5590)">
<path d="M293.179 32.9149H40.1113V69.619H293.179V32.9149Z" fill="#8C8FFF"/>
</g>
<path d="M260.818 75.7363H75.543V201.581H260.818V75.7363Z" stroke="#8C8FFF" stroke-width="0.7" stroke-miterlimit="10"/>
<path d="M101.109 75.5232V201.367" stroke="#8C8FFF" stroke-width="0.7" stroke-miterlimit="10"/>
<path d="M128.199 75.7363V201.587" stroke="#8C8FFF" stroke-width="0.7" stroke-miterlimit="10"/>
<path d="M154.855 75.5232V201.367" stroke="#8C8FFF" stroke-width="0.7" stroke-miterlimit="10"/>
<path d="M181.951 75.7363V201.587" stroke="#8C8FFF" stroke-width="0.7" stroke-miterlimit="10"/>
<path d="M207.292 75.5232V201.367" stroke="#8C8FFF" stroke-width="0.7" stroke-miterlimit="10"/>
<path d="M234.388 75.7363V201.587" stroke="#8C8FFF" stroke-width="0.7" stroke-miterlimit="10"/>
<path d="M75.7627 101.741H261.038" stroke="#8C8FFF" stroke-width="0.7" stroke-miterlimit="10"/>
<path d="M75.9824 126.643H261.258" stroke="#8C8FFF" stroke-width="0.7" stroke-miterlimit="10"/>
<path d="M75.7627 151.551H261.038" stroke="#8C8FFF" stroke-width="0.7" stroke-miterlimit="10"/>
<path d="M75.9824 176.459H261.258" stroke="#8C8FFF" stroke-width="0.7" stroke-miterlimit="10"/>
<path d="M79.6989 56.0742C79.6988 56.4629 79.5837 56.8429 79.368 57.1663C79.1523 57.4896 78.8457 57.7419 78.4868 57.8912C78.1279 58.0405 77.7328 58.0802 77.3514 58.0053C76.97 57.9304 76.6193 57.7442 76.3436 57.4702C76.0678 57.1962 75.8794 56.8467 75.8021 56.4657C75.7247 56.0848 75.7619 55.6895 75.9089 55.3297C76.056 54.9698 76.3063 54.6616 76.6283 54.4438C76.9503 54.2261 77.3295 54.1086 77.7182 54.1061C77.9775 54.1053 78.2344 54.1555 78.4743 54.254C78.7141 54.3524 78.9322 54.4972 79.1161 54.6799C79.3001 54.8627 79.4462 55.0799 79.5462 55.3191C79.6461 55.5583 79.698 55.8149 79.6989 56.0742Z" fill="white"/>
<path d="M86.9069 56.2936C86.9069 56.6829 86.7914 57.0634 86.5752 57.387C86.3589 57.7107 86.0515 57.9629 85.6919 58.1119C85.3323 58.2609 84.9366 58.2998 84.5548 58.2239C84.1731 58.148 83.8224 57.9605 83.5471 57.6853C83.2719 57.41 83.0845 57.0594 83.0085 56.6776C82.9326 56.2958 82.9716 55.9001 83.1205 55.5405C83.2695 55.1809 83.5217 54.8735 83.8454 54.6572C84.169 54.441 84.5495 54.3256 84.9388 54.3256C85.4608 54.3256 85.9613 54.5329 86.3304 54.902C86.6995 55.2711 86.9069 55.7717 86.9069 56.2936Z" fill="#FD9090"/>
<path d="M94.3346 56.2937C94.3346 56.6832 94.219 57.0639 94.0025 57.3877C93.7859 57.7115 93.4782 57.9637 93.1182 58.1125C92.7582 58.2613 92.3622 58.2999 91.9802 58.2234C91.5983 58.147 91.2476 57.9589 90.9727 57.6831C90.6977 57.4072 90.5107 57.0559 90.4355 56.6737C90.3603 56.2916 90.4001 55.8957 90.5501 55.5361C90.7 55.1766 90.9532 54.8697 91.2777 54.6542C91.6022 54.4387 91.9833 54.3243 92.3728 54.3256C92.8937 54.3272 93.3926 54.5353 93.7604 54.9042C94.1281 55.2731 94.3346 55.7728 94.3346 56.2937Z" fill="#FF7A00"/>
<path d="M211.66 155.268H164.031C163.187 155.268 162.502 155.953 162.502 156.797V169.032C162.502 169.877 163.187 170.561 164.031 170.561H211.66C212.505 170.561 213.189 169.877 213.189 169.032V156.797C213.189 155.953 212.505 155.268 211.66 155.268Z" fill="#8C8FFF"/>
<path d="M121.198 107.2H91.5074C90.8982 107.2 90.4043 107.694 90.4043 108.304V118.771C90.4043 119.38 90.8982 119.874 91.5074 119.874H121.198C121.807 119.874 122.301 119.38 122.301 118.771V108.304C122.301 107.694 121.807 107.2 121.198 107.2Z" fill="#FF7A00"/>
<path d="M132.135 82.2922H84.5059C83.6613 82.2922 82.9766 82.9769 82.9766 83.8216V96.0562C82.9766 96.9009 83.6613 97.5856 84.5059 97.5856H132.135C132.979 97.5856 133.664 96.9009 133.664 96.0562V83.8216C133.664 82.9769 132.979 82.2922 132.135 82.2922Z" fill="#FD9090"/>
<path d="M128.419 84.9186H87.346C87.1037 84.9186 86.9072 85.115 86.9072 85.3573V86.2285C86.9072 86.4709 87.1037 86.6673 87.346 86.6673H128.419C128.661 86.6673 128.857 86.4709 128.857 86.2285V85.3573C128.857 85.115 128.661 84.9186 128.419 84.9186Z" fill="white"/>
<path opacity="0.49" d="M128.419 87.9773H87.346C87.1037 87.9773 86.9072 88.1737 86.9072 88.416V89.2873C86.9072 89.5296 87.1037 89.726 87.346 89.726H128.419C128.661 89.726 128.857 89.5296 128.857 89.2873V88.416C128.857 88.1737 128.661 87.9773 128.419 87.9773Z" fill="white"/>
<path opacity="0.49" d="M113.646 91.0359H87.2582C87.0644 91.0359 86.9072 91.193 86.9072 91.3869V92.4336C86.9072 92.6274 87.0644 92.7846 87.2582 92.7846H113.646C113.839 92.7846 113.997 92.6274 113.997 92.4336V91.3869C113.997 91.193 113.839 91.0359 113.646 91.0359Z" fill="white"/>
<path d="M224.772 179.737H177.144C176.299 179.737 175.614 180.422 175.614 181.267V193.501C175.614 194.346 176.299 195.031 177.144 195.031H224.772C225.617 195.031 226.302 194.346 226.302 193.501V181.267C226.302 180.422 225.617 179.737 224.772 179.737Z" fill="#FD9090"/>
<path opacity="0.49" d="M221.495 187.603H180.422C180.18 187.603 179.983 187.8 179.983 188.042V188.913C179.983 189.156 180.18 189.352 180.422 189.352H221.495C221.737 189.352 221.934 189.156 221.934 188.913V188.042C221.934 187.8 221.737 187.603 221.495 187.603Z" fill="white"/>
<path opacity="0.49" d="M206.722 190.662H180.334C180.141 190.662 179.983 190.819 179.983 191.013V192.06C179.983 192.254 180.141 192.411 180.334 192.411H206.722C206.916 192.411 207.073 192.254 207.073 192.06V191.013C207.073 190.819 206.916 190.662 206.722 190.662Z" fill="white"/>
<path d="M205.857 183.235H180.328C180.138 183.235 179.983 183.389 179.983 183.579V184.639C179.983 184.829 180.138 184.983 180.328 184.983H205.857C206.047 184.983 206.201 184.829 206.201 184.639V183.579C206.201 183.389 206.047 183.235 205.857 183.235Z" fill="white"/>
<path d="M197.238 126.863H149.609C148.765 126.863 148.08 127.547 148.08 128.392V140.627C148.08 141.471 148.765 142.156 149.609 142.156H197.238C198.083 142.156 198.768 141.471 198.768 140.627V128.392C198.768 127.547 198.083 126.863 197.238 126.863Z" fill="#8C8FFF"/>
<path opacity="0.49" d="M196.148 134.296H155.075C154.833 134.296 154.637 134.493 154.637 134.735V135.606C154.637 135.848 154.833 136.045 155.075 136.045H196.148C196.39 136.045 196.587 135.848 196.587 135.606V134.735C196.587 134.493 196.39 134.296 196.148 134.296Z" fill="white"/>
<path opacity="0.49" d="M181.375 137.355H154.988C154.794 137.355 154.637 137.512 154.637 137.706V138.752C154.637 138.946 154.794 139.103 154.988 139.103H181.375C181.569 139.103 181.726 138.946 181.726 138.752V137.706C181.726 137.512 181.569 137.355 181.375 137.355Z" fill="white"/>
<path d="M180.51 129.921H154.981C154.791 129.921 154.637 130.075 154.637 130.266V131.325C154.637 131.515 154.791 131.67 154.981 131.67H180.51C180.7 131.67 180.855 131.515 180.855 131.325V130.266C180.855 130.075 180.7 129.921 180.51 129.921Z" fill="white"/>
<path d="M258.299 108.51H210.031C209.363 108.51 208.821 109.052 208.821 109.72V116.916C208.821 117.584 209.363 118.125 210.031 118.125H258.299C258.967 118.125 259.509 117.584 259.509 116.916V109.72C259.509 109.052 258.967 108.51 258.299 108.51Z" fill="#FF7A00"/>
<path opacity="0.49" d="M253.391 114.628H212.319C212.076 114.628 211.88 114.824 211.88 115.067V115.938C211.88 116.18 212.076 116.377 212.319 116.377H253.391C253.634 116.377 253.83 116.18 253.83 115.938V115.067C253.83 114.824 253.634 114.628 253.391 114.628Z" fill="white"/>
<path d="M237.753 110.698H212.225C212.034 110.698 211.88 110.852 211.88 111.043V112.102C211.88 112.292 212.034 112.447 212.225 112.447H237.753C237.944 112.447 238.098 112.292 238.098 112.102V111.043C238.098 110.852 237.944 110.698 237.753 110.698Z" fill="white"/>
<path d="M94.5344 131.237H79.2786C78.4236 131.237 77.7305 131.931 77.7305 132.786V148.041C77.7305 148.896 78.4236 149.589 79.2786 149.589H94.5344C95.3894 149.589 96.0825 148.896 96.0825 148.041V132.786C96.0825 131.931 95.3894 131.237 94.5344 131.237Z" fill="#FD9090"/>
<path d="M88.656 140.846C88.6572 141.538 88.4531 142.215 88.0696 142.791C87.686 143.367 87.1403 143.816 86.5013 144.082C85.8623 144.347 85.1589 144.417 84.4801 144.283C83.8012 144.149 83.1775 143.816 82.6877 143.327C82.198 142.839 81.8643 142.215 81.7288 141.537C81.5933 140.858 81.6622 140.155 81.9268 139.515C82.1913 138.876 82.6395 138.329 83.2148 137.945C83.7901 137.56 84.4665 137.355 85.1585 137.355C86.085 137.355 86.9737 137.722 87.6294 138.377C88.2851 139.031 88.6543 139.919 88.656 140.846Z" fill="white"/>
<path d="M226.935 80.5437H211.679C210.824 80.5437 210.131 81.2368 210.131 82.0918V97.3476C210.131 98.2026 210.824 98.8957 211.679 98.8957H226.935C227.79 98.8957 228.483 98.2026 228.483 97.3476V82.0918C228.483 81.2368 227.79 80.5437 226.935 80.5437Z" fill="#8C8FFF"/>
<path d="M217.559 86.4479C217.559 86.7504 217.469 87.0461 217.301 87.2976C217.133 87.5491 216.894 87.7451 216.615 87.8608C216.335 87.9766 216.028 88.0069 215.731 87.9479C215.434 87.8889 215.162 87.7432 214.948 87.5293C214.734 87.3154 214.588 87.0429 214.529 86.7463C214.47 86.4496 214.501 86.1421 214.616 85.8627C214.732 85.5832 214.928 85.3444 215.18 85.1763C215.431 85.0083 215.727 84.9186 216.029 84.9186C216.435 84.9186 216.824 85.0797 217.111 85.3665C217.398 85.6533 217.559 86.0423 217.559 86.4479Z" fill="white"/>
<path d="M219.307 92.1516C219.305 91.5886 219.471 91.0378 219.783 90.569C220.095 90.1002 220.539 89.7345 221.059 89.5182C221.579 89.3019 222.151 89.2446 222.703 89.3537C223.256 89.4628 223.764 89.7333 224.162 90.131C224.561 90.5287 224.832 91.0358 224.943 91.5879C225.053 92.1401 224.997 92.7125 224.782 93.2329C224.567 93.7532 224.202 94.198 223.734 94.5109C223.266 94.8239 222.715 94.9909 222.152 94.9909C221.779 94.9918 221.409 94.9189 221.064 94.7766C220.719 94.6343 220.405 94.4253 220.14 94.1615C219.876 93.8978 219.666 93.5845 219.523 93.2396C219.38 92.8948 219.307 92.525 219.307 92.1516Z" fill="white"/>
<path d="M147.849 187.603H132.593C131.738 187.603 131.045 188.297 131.045 189.152V204.407C131.045 205.262 131.738 205.955 132.593 205.955H147.849C148.704 205.955 149.397 205.262 149.397 204.407V189.152C149.397 188.297 148.704 187.603 147.849 187.603Z" fill="#FF7A00"/>
<path d="M144.156 201.837C144.156 202.14 144.067 202.436 143.899 202.687C143.731 202.939 143.492 203.135 143.212 203.25C142.933 203.366 142.625 203.396 142.329 203.337C142.032 203.278 141.759 203.133 141.546 202.919C141.332 202.705 141.186 202.432 141.127 202.136C141.068 201.839 141.098 201.532 141.214 201.252C141.33 200.973 141.526 200.734 141.777 200.566C142.029 200.398 142.325 200.308 142.627 200.308C143.033 200.308 143.422 200.469 143.708 200.756C143.995 201.043 144.156 201.432 144.156 201.837Z" fill="white"/>
<path d="M142.84 195.469C142.845 196.075 142.67 196.668 142.337 197.174C142.005 197.68 141.53 198.076 140.972 198.312C140.414 198.548 139.799 198.612 139.205 198.498C138.61 198.384 138.063 198.096 137.632 197.671C137.201 197.245 136.906 196.701 136.785 196.108C136.663 195.515 136.721 194.899 136.949 194.338C137.178 193.778 137.568 193.298 138.07 192.959C138.572 192.62 139.163 192.438 139.769 192.436C140.577 192.434 141.354 192.752 141.929 193.32C142.504 193.888 142.832 194.661 142.84 195.469Z" fill="white"/>
<path d="M259.289 58.2617H201.625C201.104 58.2601 200.604 58.0522 200.235 57.6835C199.867 57.3147 199.659 56.8151 199.657 56.2936C199.659 55.7722 199.867 55.2726 200.235 54.9038C200.604 54.5351 201.104 54.3272 201.625 54.3256H259.289C259.811 54.3256 260.311 54.5329 260.68 54.902C261.049 55.2711 261.257 55.7717 261.257 56.2936C261.257 56.8156 261.049 57.3162 260.68 57.6853C260.311 58.0544 259.811 58.2617 259.289 58.2617Z" fill="#FF7A00"/>
<path d="M91.9588 30.5582H36.0127C35.0192 30.5582 34.2139 31.3636 34.2139 32.3571V46.7228C34.2139 47.7163 35.0192 48.5216 36.0127 48.5216H91.9588C92.9523 48.5216 93.7577 47.7163 93.7577 46.7228V32.3571C93.7577 31.3636 92.9523 30.5582 91.9588 30.5582Z" fill="#FF7A00"/>
<path opacity="0.49" d="M90.6734 39.283H42.4241C42.1403 39.283 41.9102 39.5131 41.9102 39.7969V40.8248C41.9102 41.1087 42.1403 41.3388 42.4241 41.3388H90.6734C90.9572 41.3388 91.1873 41.1087 91.1873 40.8248V39.7969C91.1873 39.5131 90.9572 39.283 90.6734 39.283Z" fill="white"/>
<path opacity="0.49" d="M73.3179 42.8744H42.3238C42.0954 42.8744 41.9102 43.0596 41.9102 43.2881V44.5165C41.9102 44.745 42.0954 44.9302 42.3238 44.9302H73.3179C73.5464 44.9302 73.7316 44.745 73.7316 44.5165V43.2881C73.7316 43.0596 73.5464 42.8744 73.3179 42.8744Z" fill="white"/>
<path d="M72.3026 34.1497H42.3176C42.0926 34.1497 41.9102 34.3321 41.9102 34.5571V35.7981C41.9102 36.0231 42.0926 36.2055 42.3176 36.2055H72.3026C72.5276 36.2055 72.71 36.0231 72.71 35.7981V34.5571C72.71 34.3321 72.5276 34.1497 72.3026 34.1497Z" fill="white"/>
<path opacity="0.29" d="M94.8102 290.457C113.614 290.457 128.857 288.962 128.857 287.117C128.857 285.272 113.614 283.776 94.8102 283.776C76.0068 283.776 60.7637 285.272 60.7637 287.117C60.7637 288.962 76.0068 290.457 94.8102 290.457Z" fill="#8C8FFF"/>
<path d="M102.162 278.191L103.315 284.296C103.315 284.296 102.739 287.756 103.315 288.333C103.892 288.909 117.104 288.496 117.731 287.944C119.204 286.691 107.076 284.071 107.076 284.071L106.33 276.004L102.162 278.191Z" fill="#FFDADA"/>
<mask id="mask1_2_5590" style="mask-type:luminance" maskUnits="userSpaceOnUse" x="102" y="276" width="16" height="13">
<path d="M102.162 278.191L103.315 284.296C103.315 284.296 102.739 287.756 103.315 288.333C103.892 288.909 117.104 288.496 117.731 287.944C119.204 286.691 107.076 284.071 107.076 284.071L106.33 276.004L102.162 278.191Z" fill="white"/>
</mask>
<g mask="url(#mask1_2_5590)">
<path d="M100.602 284.572C100.602 284.572 108.067 285.493 111.94 281.657C115.814 277.822 118.421 290.84 118.421 290.84L107.039 294.224L97.9883 289.611L100.602 284.572Z" fill="#8C8FFF"/>
</g>
<path d="M68.1787 271.968L67.6397 282.027C67.6397 282.027 67.2573 285.343 67.6397 286.064C67.9718 286.691 74.8852 287.048 76.2829 286.064C76.9724 285.581 71.3878 281.796 71.3878 281.796L74.014 274.431L68.1787 271.968Z" fill="#FFDADA"/>
<mask id="mask2_2_5590" style="mask-type:luminance" maskUnits="userSpaceOnUse" x="67" y="271" width="10" height="16">
<path d="M68.1787 271.968L67.6397 282.027C67.6397 282.027 67.2573 285.343 67.6397 286.064C67.9718 286.691 74.8852 287.048 76.2829 286.064C76.9724 285.581 71.3878 281.796 71.3878 281.796L74.014 274.431L68.1787 271.968Z" fill="white"/>
</mask>
<g mask="url(#mask2_2_5590)">
<path d="M64.9511 282.297C64.9511 282.297 72.4223 283.218 76.2895 279.376C80.1567 275.534 82.7767 288.596 82.7767 288.596L71.3881 291.974L62.3438 287.368L64.9511 282.297Z" fill="#8C8FFF"/>
</g>
<path d="M141.192 116.308L145.241 112.547C145.241 112.547 147.072 107.971 148.902 107.056C149.932 106.51 150.926 105.898 151.879 105.226C152.336 104.994 155.539 99.9612 156.222 100.419C156.906 100.876 153.252 106.367 153.252 106.367C153.252 106.367 154.624 108.874 154.624 110.485C154.624 112.096 148.676 115.06 148.676 115.06L143.662 122.839L141.192 116.308Z" fill="#FFDADA"/>
<path d="M95.7126 87.1374C96.0761 88.6792 95.7126 90.0769 94.9417 90.2712C94.1707 90.4655 93.2055 89.3687 92.842 87.8268C92.4784 86.285 92.842 84.8872 93.6129 84.6929C94.3838 84.4986 95.3491 85.5892 95.7126 87.1374Z" stroke="#8C8FFF" stroke-width="0.64" stroke-miterlimit="10"/>
<path d="M107.039 182.364V280.542L98.4145 281.388L89.8088 202.966L74.6659 278.035L67.3389 278.248L72.8482 182.125L107.039 182.364Z" fill="#FF7A00"/>
<mask id="mask3_2_5590" style="mask-type:luminance" maskUnits="userSpaceOnUse" x="67" y="182" width="41" height="100">
<path d="M107.039 182.364V280.542L98.4145 281.388L89.8088 202.966L74.6659 278.035L67.3389 278.248L72.8482 182.125L107.039 182.364Z" fill="white"/>
</mask>
<g mask="url(#mask3_2_5590)">
<path d="M70.9238 183.404C70.9238 183.404 91.7579 189.672 107.734 183.404C123.711 177.136 72.66 175.068 70.9238 183.404Z" fill="#8C8FFF"/>
<path d="M65.4775 218.391C67.4958 218.391 67.4958 215.257 65.4775 215.257C63.4593 215.257 63.4593 218.391 65.4775 218.391Z" fill="#8C8FFF"/>
</g>
<path d="M90.3475 111.018C90.3475 111.018 93.4814 107.884 107.27 116.032C121.06 124.18 122.313 124.807 122.313 124.807L141.743 109.764L148.011 117.285C148.011 117.285 133.225 141.203 124.457 142.457C115.688 143.71 106.399 139.323 106.399 139.323L108.135 183.423C108.135 183.423 89.7332 187.936 72.3715 182.382L66.555 150.442C66.555 150.442 59.6605 146.054 60.9141 131.012C62.1676 115.969 77.6114 109.701 77.6114 109.701L90.3475 111.018Z" fill="#7588EC"/>
<path d="M88.7625 102.293C95.0804 103.202 95.5693 100.669 95.1995 93.7937C94.9117 89.503 93.6834 85.3282 91.6018 81.5653C80.1694 74.3636 79.7808 91.2239 80.3888 100.707C80.5086 102.559 80.1657 104.411 79.391 106.097C78.6163 107.784 77.4342 109.25 75.9512 110.366C82.2189 116.007 91.6206 110.366 91.6206 110.366L91.5203 110.215C89.945 107.852 89.0019 105.124 88.7813 102.293H88.7625Z" fill="#FFDADA"/>
<path d="M87.7472 94.8217C87.7472 94.8217 88.0167 99.8359 84.3688 101.904C80.721 103.973 70.3416 97.6484 70.749 81.9477C70.749 81.9477 75.97 74.1443 82.8144 73.1415C89.6588 72.1386 89.8594 75.8993 89.8594 75.8993C89.8594 75.8993 92.9181 74.4765 93.7454 78.1933C94.5728 81.9101 87.1705 84.1915 87.1705 84.1915C87.1705 84.1915 89.9785 89.6884 88.8628 92.2519L87.7472 94.8217Z" fill="#0F0F0F"/>
<path d="M121.556 142.695C108.042 142.695 102.125 136.013 102.044 135.944L102.307 135.713C102.376 135.788 109.045 143.278 124.389 142.256C124.426 142.256 128.544 141.824 133.79 135.713L134.053 135.944C128.676 142.175 124.564 142.582 124.395 142.601C123.43 142.663 122.477 142.695 121.556 142.695Z" fill="#8C8FFF"/>
<path d="M64.328 135.965L63.9883 136.024L68.2694 160.86L68.6091 160.802L64.328 135.965Z" fill="#8C8FFF"/>
<path d="M72.3275 82.5932C71.5324 81.9244 70.849 81.133 70.303 80.2491C70.0398 79.8166 69.3629 80.2115 69.6261 80.6377C70.205 81.5822 70.9307 82.4286 71.776 83.1448C72.1583 83.4707 72.7161 82.9191 72.3275 82.5932Z" fill="#0F0F0F"/>
<path d="M72.1709 82.1921C71.2937 81.9049 70.3734 81.7713 69.4507 81.7972C68.9493 81.7972 68.943 82.5995 69.4507 82.5807C70.3012 82.5544 71.1498 82.6774 71.9578 82.9442C72.4341 83.1009 72.641 82.3488 72.1646 82.1921H72.1709Z" fill="#0F0F0F"/>
<path d="M86.7246 91.9009L95.5622 86.6172" stroke="#8C8FFF" stroke-width="0.64" stroke-miterlimit="10"/>
<path d="M88.6372 92.2267C89.546 93.2735 89.6463 94.6712 88.8628 95.3606C88.0793 96.0501 86.713 95.743 85.8041 94.7025C84.8953 93.6621 84.795 92.2644 85.5722 91.5686C86.3494 90.8729 87.7472 91.1863 88.6372 92.2267Z" fill="#FFDADA"/>
</g>
<defs>
<clipPath id="clip0_2_5590">
<rect width="296" height="296" fill="white" transform="translate(0.5)"/>
</clipPath>
</defs>
</svg>
