<svg width="16" height="16" viewBox="0 0 16 16" fill="none" xmlns="http://www.w3.org/2000/svg">
<mask id="mask0_2_4027" style="mask-type:alpha" maskUnits="userSpaceOnUse" x="0" y="0" width="16" height="16">
<rect width="16" height="16" fill="#D9D9D9"/>
</mask>
<g mask="url(#mask0_2_4027)">
<path d="M7.99992 14.6666C7.0777 14.6666 6.21103 14.4916 5.39992 14.1416C4.58881 13.7916 3.88325 13.3166 3.28325 12.7166C2.68325 12.1166 2.20825 11.4111 1.85825 10.6C1.50825 9.78887 1.33325 8.9222 1.33325 7.99998C1.33325 7.07776 1.50825 6.21109 1.85825 5.39998C2.20825 4.58887 2.68325 3.88331 3.28325 3.28331C3.88325 2.68331 4.58881 2.20831 5.39992 1.85831C6.21103 1.50831 7.0777 1.33331 7.99992 1.33331C8.53325 1.33331 9.0527 1.39442 9.55825 1.51665C10.0638 1.63887 10.5499 1.81665 11.0166 2.04998C11.1833 2.13887 11.2916 2.2722 11.3416 2.44998C11.3916 2.62776 11.361 2.79442 11.2499 2.94998C11.1388 3.10554 10.9916 3.20554 10.8083 3.24998C10.6249 3.29442 10.4444 3.2722 10.2666 3.18331C9.91103 3.01665 9.54159 2.88887 9.15825 2.79998C8.77492 2.71109 8.38881 2.66665 7.99992 2.66665C6.51103 2.66665 5.24992 3.18331 4.21659 4.21665C3.18325 5.24998 2.66659 6.51109 2.66659 7.99998C2.66659 9.48887 3.18325 10.75 4.21659 11.7833C5.24992 12.8166 6.51103 13.3333 7.99992 13.3333C8.28881 13.3333 8.57214 13.3111 8.84992 13.2666C9.1277 13.2222 9.40547 13.1555 9.68325 13.0666C9.87214 13.0111 10.0555 13.0083 10.2333 13.0583C10.411 13.1083 10.5499 13.2166 10.6499 13.3833C10.7388 13.5389 10.7583 13.7055 10.7083 13.8833C10.6583 14.0611 10.5444 14.1833 10.3666 14.25C9.98881 14.3944 9.59992 14.5 9.19992 14.5666C8.79992 14.6333 8.39992 14.6666 7.99992 14.6666ZM12.6666 11.3333H11.3333C11.1444 11.3333 10.986 11.2694 10.8583 11.1416C10.7305 11.0139 10.6666 10.8555 10.6666 10.6666C10.6666 10.4778 10.7305 10.3194 10.8583 10.1916C10.986 10.0639 11.1444 9.99998 11.3333 9.99998H12.6666V8.66665C12.6666 8.47776 12.7305 8.31942 12.8583 8.19165C12.986 8.06387 13.1444 7.99998 13.3333 7.99998C13.5221 7.99998 13.6805 8.06387 13.8083 8.19165C13.936 8.31942 13.9999 8.47776 13.9999 8.66665V9.99998H15.3333C15.5221 9.99998 15.6805 10.0639 15.8083 10.1916C15.936 10.3194 15.9999 10.4778 15.9999 10.6666C15.9999 10.8555 15.936 11.0139 15.8083 11.1416C15.6805 11.2694 15.5221 11.3333 15.3333 11.3333H13.9999V12.6666C13.9999 12.8555 13.936 13.0139 13.8083 13.1416C13.6805 13.2694 13.5221 13.3333 13.3333 13.3333C13.1444 13.3333 12.986 13.2694 12.8583 13.1416C12.7305 13.0139 12.6666 12.8555 12.6666 12.6666V11.3333ZM7.06659 9.19998L13.2666 2.98331C13.3888 2.86109 13.5444 2.79998 13.7333 2.79998C13.9221 2.79998 14.0777 2.86109 14.1999 2.98331C14.3221 3.10554 14.3833 3.26109 14.3833 3.44998C14.3833 3.63887 14.3221 3.79442 14.1999 3.91665L7.53325 10.6C7.39992 10.7333 7.24436 10.8 7.06659 10.8C6.88881 10.8 6.73325 10.7333 6.59992 10.6L4.69992 8.69998C4.5777 8.57776 4.51659 8.4222 4.51659 8.23331C4.51659 8.04442 4.5777 7.88887 4.69992 7.76665C4.82214 7.64442 4.9777 7.58331 5.16659 7.58331C5.35547 7.58331 5.51103 7.64442 5.63325 7.76665L7.06659 9.19998Z" fill="#A0A0A0"/>
</g>
</svg>
