<svg width="24" height="24" viewBox="0 0 24 24" fill="none" xmlns="http://www.w3.org/2000/svg">
<mask id="mask0_2_4287" style="mask-type:alpha" maskUnits="userSpaceOnUse" x="0" y="0" width="24" height="24">
<rect width="24" height="24" fill="#D9D9D9"/>
</mask>
<g mask="url(#mask0_2_4287)">
<path d="M4 22C3.71667 22 3.47917 21.9042 3.2875 21.7125C3.09583 21.5208 3 21.2833 3 21C3 20.7167 3.09583 20.4792 3.2875 20.2875C3.47917 20.0958 3.71667 20 4 20H20C20.2833 20 20.5208 20.0958 20.7125 20.2875C20.9042 20.4792 21 20.7167 21 21C21 21.2833 20.9042 21.5208 20.7125 21.7125C20.5208 21.9042 20.2833 22 20 22H4ZM4 16C3.71667 16 3.47917 15.9042 3.2875 15.7125C3.09583 15.5208 3 15.2833 3 15C3 14.7167 3.09583 14.4792 3.2875 14.2875C3.47917 14.0958 3.71667 14 4 14H20C20.2833 14 20.5208 14.0958 20.7125 14.2875C20.9042 14.4792 21 14.7167 21 15C21 15.2833 20.9042 15.5208 20.7125 15.7125C20.5208 15.9042 20.2833 16 20 16H4ZM4 10C3.71667 10 3.47917 9.90417 3.2875 9.7125C3.09583 9.52083 3 9.28333 3 9C3 8.71667 3.09583 8.47917 3.2875 8.2875C3.47917 8.09583 3.71667 8 4 8H20C20.2833 8 20.5208 8.09583 20.7125 8.2875C20.9042 8.47917 21 8.71667 21 9C21 9.28333 20.9042 9.52083 20.7125 9.7125C20.5208 9.90417 20.2833 10 20 10H4ZM4 4C3.71667 4 3.47917 3.90417 3.2875 3.7125C3.09583 3.52083 3 3.28333 3 3C3 2.71667 3.09583 2.47917 3.2875 2.2875C3.47917 2.09583 3.71667 2 4 2H20C20.2833 2 20.5208 2.09583 20.7125 2.2875C20.9042 2.47917 21 2.71667 21 3C21 3.28333 20.9042 3.52083 20.7125 3.7125C20.5208 3.90417 20.2833 4 20 4H4Z" fill="#8C8FFF"/>
</g>
</svg>
