<svg width="84" height="84" viewBox="0 0 84 84" fill="none" xmlns="http://www.w3.org/2000/svg">
<path d="M8.80078 12.95C8.80078 10.658 10.6588 8.79999 12.9508 8.79999H21.8852C23.9139 8.79999 25.6452 10.2667 25.9787 12.2677L29.0469 30.6766C29.3464 32.4737 28.4388 34.256 26.8093 35.0707L20.3845 38.2831C25.0171 49.795 34.2058 58.9836 45.7176 63.6163L48.93 57.1915C49.7448 55.562 51.5271 54.6544 53.3242 54.9539L71.733 58.022C73.7341 58.3555 75.2008 60.0869 75.2008 62.1156V71.05C75.2008 73.342 73.3428 75.2 71.0508 75.2H62.7508C32.955 75.2 8.80078 51.0457 8.80078 21.25V12.95Z" fill="#A0A0A0"/>
</svg>
