<svg width="31" height="31" viewBox="0 0 31 31" fill="none" xmlns="http://www.w3.org/2000/svg">
<mask id="mask0_154_14263" style="mask-type:alpha" maskUnits="userSpaceOnUse" x="0" y="0" width="31" height="31">
<rect x="0.25" y="0.25" width="30.5" height="30.5" fill="#D9D9D9"/>
</mask>
<g mask="url(#mask0_154_14263)">
<path d="M9.2 22.3389L6.785 24.6876C6.4525 25.011 6.07187 25.0833 5.64312 24.9046C5.21437 24.7259 5 24.4068 5 23.9472V8.04236C5 7.48071 5.20563 6.99991 5.61688 6.59994C6.02813 6.19998 6.5225 6 7.1 6H23.9C24.4775 6 24.9719 6.19998 25.3831 6.59994C25.7944 6.99991 26 7.48071 26 8.04236V20.2965C26 20.8582 25.7944 21.339 25.3831 21.7389C24.9719 22.1389 24.4775 22.3389 23.9 22.3389H9.2Z" fill="#A0A0A0"/>
</g>
</svg>
