<svg width="31" height="31" viewBox="0 0 31 31" fill="none" xmlns="http://www.w3.org/2000/svg">
<mask id="mask0_22_7063" style="mask-type:alpha" maskUnits="userSpaceOnUse" x="0" y="0" width="31" height="31">
<rect x="0.5" y="0.5" width="30" height="30" fill="#D9D9D9"/>
</mask>
<g mask="url(#mask0_22_7063)">
<path d="M1.75 22C1.75 21.2917 1.93229 20.6406 2.29688 20.0469C2.66146 19.4531 3.14583 19 3.75 18.6875C5.04167 18.0417 6.35417 17.5573 7.6875 17.2344C9.02083 16.9115 10.375 16.75 11.75 16.75C13.125 16.75 14.4792 16.9115 15.8125 17.2344C17.1458 17.5573 18.4583 18.0417 19.75 18.6875C20.3542 19 20.8385 19.4531 21.2031 20.0469C21.5677 20.6406 21.75 21.2917 21.75 22V23C21.75 23.6875 21.5052 24.276 21.0156 24.7656C20.526 25.2552 19.9375 25.5 19.25 25.5H4.25C3.5625 25.5 2.97396 25.2552 2.48438 24.7656C1.99479 24.276 1.75 23.6875 1.75 23V22ZM23.5625 25.5C23.7917 25.125 23.9635 24.724 24.0781 24.2969C24.1927 23.8698 24.25 23.4375 24.25 23V21.75C24.25 20.8333 23.9948 19.9531 23.4844 19.1094C22.974 18.2656 22.25 17.5417 21.3125 16.9375C22.375 17.0625 23.375 17.276 24.3125 17.5781C25.25 17.8802 26.125 18.25 26.9375 18.6875C27.6875 19.1042 28.2604 19.5677 28.6562 20.0781C29.0521 20.5885 29.25 21.1458 29.25 21.75V23C29.25 23.6875 29.0052 24.276 28.5156 24.7656C28.026 25.2552 27.4375 25.5 26.75 25.5H23.5625ZM11.75 15.5C10.375 15.5 9.19792 15.0104 8.21875 14.0312C7.23958 13.0521 6.75 11.875 6.75 10.5C6.75 9.125 7.23958 7.94792 8.21875 6.96875C9.19792 5.98958 10.375 5.5 11.75 5.5C13.125 5.5 14.3021 5.98958 15.2812 6.96875C16.2604 7.94792 16.75 9.125 16.75 10.5C16.75 11.875 16.2604 13.0521 15.2812 14.0312C14.3021 15.0104 13.125 15.5 11.75 15.5ZM24.25 10.5C24.25 11.875 23.7604 13.0521 22.7812 14.0312C21.8021 15.0104 20.625 15.5 19.25 15.5C19.0208 15.5 18.7292 15.474 18.375 15.4219C18.0208 15.3698 17.7292 15.3125 17.5 15.25C18.0625 14.5833 18.4948 13.8438 18.7969 13.0312C19.099 12.2188 19.25 11.375 19.25 10.5C19.25 9.625 19.099 8.78125 18.7969 7.96875C18.4948 7.15625 18.0625 6.41667 17.5 5.75C17.7917 5.64583 18.0833 5.57812 18.375 5.54688C18.6667 5.51563 18.9583 5.5 19.25 5.5C20.625 5.5 21.8021 5.98958 22.7812 6.96875C23.7604 7.94792 24.25 9.125 24.25 10.5Z" fill="#A0A0A0"/>
</g>
</svg>
