<svg width="17" height="20" viewBox="0 0 17 20" fill="none" xmlns="http://www.w3.org/2000/svg">
<path d="M8 20C7.45 20 6.97917 19.8042 6.5875 19.4125C6.19583 19.0208 6 18.55 6 18H10C10 18.55 9.80417 19.0208 9.4125 19.4125C9.02083 19.8042 8.55 20 8 20ZM15 17H1C0.716667 17 0.479167 16.9042 0.2875 16.7125C0.0958333 16.5208 0 16.2833 0 16C0 15.7167 0.0958333 15.4792 0.2875 15.2875C0.479167 15.0958 0.716667 15 1 15H2V8C2 6.61667 2.41667 5.3875 3.25 4.3125C4.08333 3.2375 5.16667 2.53333 6.5 2.2V1.5C6.5 1.08333 6.64583 0.729167 6.9375 0.4375C7.22917 0.145833 7.58333 0 8 0C8.41667 0 8.77083 0.145833 9.0625 0.4375C9.35417 0.729167 9.5 1.08333 9.5 1.5V2.2C9.66667 2.23333 9.825 2.27083 9.975 2.3125C10.125 2.35417 10.2667 2.41667 10.4 2.5C10.6333 2.63333 10.8083 2.82083 10.925 3.0625C11.0417 3.30417 11.0417 3.55 10.925 3.8C10.8083 4.05 10.6292 4.22917 10.3875 4.3375C10.1458 4.44583 9.9 4.45 9.65 4.35C9.28333 4.2 8.98333 4.10417 8.75 4.0625C8.51667 4.02083 8.26667 4 8 4C6.9 4 5.95833 4.39167 5.175 5.175C4.39167 5.95833 4 6.9 4 8V15H12V13C12 12.6667 12.1042 12.4167 12.3125 12.25C12.5208 12.0833 12.75 12 13 12C13.25 12 13.4792 12.0833 13.6875 12.25C13.8958 12.4167 14 12.6667 14 13V15H15C15.2833 15 15.5208 15.0958 15.7125 15.2875C15.9042 15.4792 16 15.7167 16 16C16 16.2833 15.9042 16.5208 15.7125 16.7125C15.5208 16.9042 15.2833 17 15 17ZM8 10V8.35C8 8.21667 8.025 8.0875 8.075 7.9625C8.125 7.8375 8.2 7.725 8.3 7.625L13.525 2.425C13.675 2.275 13.8417 2.16667 14.025 2.1C14.2083 2.03333 14.3917 2 14.575 2C14.775 2 14.9667 2.0375 15.15 2.1125C15.3333 2.1875 15.5 2.3 15.65 2.45L16.575 3.375C16.7083 3.525 16.8125 3.69167 16.8875 3.875C16.9625 4.05833 17 4.24167 17 4.425C17 4.60833 16.9667 4.79583 16.9 4.9875C16.8333 5.17917 16.725 5.35 16.575 5.5L11.375 10.7C11.275 10.8 11.1625 10.875 11.0375 10.925C10.9125 10.975 10.7833 11 10.65 11H9C8.71667 11 8.47917 10.9042 8.2875 10.7125C8.09583 10.5208 8 10.2833 8 10ZM9.5 9.5H10.45L13.475 6.45L13.025 5.975L12.55 5.525L9.5 8.55V9.5ZM13.025 5.975L12.55 5.525L13.475 6.45L13.025 5.975Z" fill="#8C8FFF"/>
</svg>
