<svg width="25" height="24" viewBox="0 0 25 24" fill="none" xmlns="http://www.w3.org/2000/svg">
<g clip-path="url(#clip0_2_9863)">
<path d="M0.5 0H24.5V24H0.5V0Z" fill="#012169"/>
<path d="M24.5 0V3L15.5938 12L24.5 20.7656V24H21.3594L12.4062 15.1875L3.6875 24H0.5V20.8125L9.21875 12.0469L0.5 3.46875V0H3.40625L12.4062 8.8125L21.125 0H24.5Z" fill="white"/>
<path d="M9.125 15.1875L9.64062 16.7812L2.46875 24H0.5V23.8594L9.125 15.1875ZM14.9375 14.625L17.4688 15L24.5 21.8906V24L14.9375 14.625ZM24.5 0L15.5 9.1875L15.3125 7.125L22.3438 0H24.5ZM0.5 0.046875L9.54688 8.90625L6.78125 8.53125L0.5 2.29688V0.046875Z" fill="#C8102E"/>
<path d="M8.75 0V24H16.25V0H8.75ZM0.5 8.25V15.75H24.5V8.25H0.5Z" fill="white"/>
<path d="M0.5 9.75V14.25H24.5V9.75H0.5ZM10.25 0V24H14.75V0H10.25Z" fill="#C8102E"/>
</g>
<defs>
<clipPath id="clip0_2_9863">
<rect x="0.5" width="24" height="24" rx="12" fill="white"/>
</clipPath>
</defs>
</svg>
