<svg width="16" height="16" viewBox="0 0 16 16" fill="none" xmlns="http://www.w3.org/2000/svg">
<mask id="mask0_2_4049" style="mask-type:alpha" maskUnits="userSpaceOnUse" x="0" y="0" width="16" height="16">
<rect width="16" height="16" fill="#D9D9D9"/>
</mask>
<g mask="url(#mask0_2_4049)">
<path d="M0.666748 13.3334V11.4667C0.666748 11.0889 0.76397 10.7417 0.958415 10.425C1.15286 10.1084 1.41119 9.86669 1.73341 9.70002C2.4223 9.35558 3.1223 9.09724 3.83341 8.92502C4.54453 8.7528 5.26675 8.66669 6.00008 8.66669C6.73342 8.66669 7.45564 8.7528 8.16675 8.92502C8.87786 9.09724 9.57786 9.35558 10.2667 9.70002C10.589 9.86669 10.8473 10.1084 11.0417 10.425C11.2362 10.7417 11.3334 11.0889 11.3334 11.4667V13.3334H0.666748ZM12.6667 13.3334V11.3334C12.6667 10.8445 12.5306 10.375 12.2584 9.92502C11.9862 9.47502 11.6001 9.08891 11.1001 8.76669C11.6667 8.83335 12.2001 8.94724 12.7001 9.10835C13.2001 9.26947 13.6667 9.46669 14.1001 9.70002C14.5001 9.92224 14.8056 10.1695 15.0167 10.4417C15.2279 10.7139 15.3334 11.0111 15.3334 11.3334V13.3334H12.6667ZM6.00008 8.00002C5.26675 8.00002 4.63897 7.73891 4.11675 7.21669C3.59453 6.69447 3.33341 6.06669 3.33341 5.33335C3.33341 4.60002 3.59453 3.97224 4.11675 3.45002C4.63897 2.9278 5.26675 2.66669 6.00008 2.66669C6.73342 2.66669 7.36119 2.9278 7.88341 3.45002C8.40564 3.97224 8.66675 4.60002 8.66675 5.33335C8.66675 6.06669 8.40564 6.69447 7.88341 7.21669C7.36119 7.73891 6.73342 8.00002 6.00008 8.00002ZM12.6667 5.33335C12.6667 6.06669 12.4056 6.69447 11.8834 7.21669C11.3612 7.73891 10.7334 8.00002 10.0001 8.00002C9.87786 8.00002 9.7223 7.98613 9.53341 7.95835C9.34453 7.93058 9.18897 7.90002 9.06675 7.86669C9.36675 7.51113 9.5973 7.11669 9.75842 6.68335C9.91953 6.25002 10.0001 5.80002 10.0001 5.33335C10.0001 4.86669 9.91953 4.41669 9.75842 3.98335C9.5973 3.55002 9.36675 3.15558 9.06675 2.80002C9.2223 2.74446 9.37786 2.70835 9.53341 2.69169C9.68897 2.67502 9.84453 2.66669 10.0001 2.66669C10.7334 2.66669 11.3612 2.9278 11.8834 3.45002C12.4056 3.97224 12.6667 4.60002 12.6667 5.33335ZM2.00008 12H10.0001V11.4667C10.0001 11.3445 9.96953 11.2334 9.90841 11.1334C9.8473 11.0334 9.76675 10.9556 9.66675 10.9C9.06675 10.6 8.46119 10.375 7.85008 10.225C7.23897 10.075 6.6223 10 6.00008 10C5.37786 10 4.76119 10.075 4.15008 10.225C3.53897 10.375 2.93341 10.6 2.33341 10.9C2.23341 10.9556 2.15286 11.0334 2.09175 11.1334C2.03064 11.2334 2.00008 11.3445 2.00008 11.4667V12ZM6.00008 6.66669C6.36675 6.66669 6.68064 6.53613 6.94175 6.27502C7.20286 6.01391 7.33342 5.70002 7.33342 5.33335C7.33342 4.96669 7.20286 4.6528 6.94175 4.39169C6.68064 4.13058 6.36675 4.00002 6.00008 4.00002C5.63341 4.00002 5.31953 4.13058 5.05841 4.39169C4.7973 4.6528 4.66675 4.96669 4.66675 5.33335C4.66675 5.70002 4.7973 6.01391 5.05841 6.27502C5.31953 6.53613 5.63341 6.66669 6.00008 6.66669Z" fill="#A0A0A0"/>
</g>
</svg>
