<svg width="31" height="31" viewBox="0 0 31 31" fill="none" xmlns="http://www.w3.org/2000/svg">
<mask id="mask0_154_15396" style="mask-type:alpha" maskUnits="userSpaceOnUse" x="0" y="0" width="31" height="31">
<rect x="0.5" y="0.5" width="30" height="30" fill="#D9D9D9"/>
</mask>
<g mask="url(#mask0_154_15396)">
<path d="M5.5 24.25V13C5.5 12.6042 5.58854 12.2292 5.76563 11.875C5.94271 11.5208 6.1875 11.2292 6.5 11L14 5.375C14.4375 5.04167 14.9375 4.875 15.5 4.875C16.0625 4.875 16.5625 5.04167 17 5.375L24.5 11C24.8125 11.2292 25.0573 11.5208 25.2344 11.875C25.4115 12.2292 25.5 12.6042 25.5 13V24.25C25.5 24.9375 25.2552 25.526 24.7656 26.0156C24.276 26.5052 23.6875 26.75 23 26.75H19.25C18.8958 26.75 18.599 26.6302 18.3594 26.3906C18.1198 26.151 18 25.8542 18 25.5V19.25C18 18.8958 17.8802 18.599 17.6406 18.3594C17.401 18.1198 17.1042 18 16.75 18H14.25C13.8958 18 13.599 18.1198 13.3594 18.3594C13.1198 18.599 13 18.8958 13 19.25V25.5C13 25.8542 12.8802 26.151 12.6406 26.3906C12.401 26.6302 12.1042 26.75 11.75 26.75H8C7.3125 26.75 6.72396 26.5052 6.23438 26.0156C5.74479 25.526 5.5 24.9375 5.5 24.25Z" fill="#A0A0A0"/>
</g>
</svg>
