<svg width="16" height="16" viewBox="0 0 16 16" fill="none" xmlns="http://www.w3.org/2000/svg">
<mask id="mask0_2_4041" style="mask-type:alpha" maskUnits="userSpaceOnUse" x="0" y="0" width="16" height="16">
<rect width="16" height="16" fill="#D9D9D9"/>
</mask>
<g mask="url(#mask0_2_4041)">
<path d="M5.33341 13.3333H10.6667V11.3333C10.6667 10.6 10.4056 9.9722 9.88341 9.44998C9.36119 8.92776 8.73342 8.66665 8.00008 8.66665C7.26675 8.66665 6.63897 8.92776 6.11675 9.44998C5.59453 9.9722 5.33341 10.6 5.33341 11.3333V13.3333ZM8.00008 7.33331C8.73342 7.33331 9.36119 7.0722 9.88341 6.54998C10.4056 6.02776 10.6667 5.39998 10.6667 4.66665V2.66665H5.33341V4.66665C5.33341 5.39998 5.59453 6.02776 6.11675 6.54998C6.63897 7.0722 7.26675 7.33331 8.00008 7.33331ZM2.66675 14.6666V13.3333H4.00008V11.3333C4.00008 10.6555 4.15841 10.0194 4.47508 9.42498C4.79175 8.83053 5.23341 8.35554 5.80008 7.99998C5.23341 7.64442 4.79175 7.16942 4.47508 6.57498C4.15841 5.98054 4.00008 5.34442 4.00008 4.66665V2.66665H2.66675V1.33331H13.3334V2.66665H12.0001V4.66665C12.0001 5.34442 11.8417 5.98054 11.5251 6.57498C11.2084 7.16942 10.7667 7.64442 10.2001 7.99998C10.7667 8.35554 11.2084 8.83053 11.5251 9.42498C11.8417 10.0194 12.0001 10.6555 12.0001 11.3333V13.3333H13.3334V14.6666H2.66675Z" fill="#A0A0A0"/>
</g>
</svg>
