<svg width="73" height="73" viewBox="0 0 73 73" fill="none" xmlns="http://www.w3.org/2000/svg">
<circle cx="36.5" cy="36.5" r="36.5" fill="#F3F3FF"/>
<g clip-path="url(#clip0_21_4774)">
<path d="M28.2938 22.6984H29.7859V21.2064C29.7859 17.5043 32.7977 14.4921 36.5002 14.4921C40.2026 14.4921 43.2145 17.5042 43.2145 21.2064V22.6984H44.7065V21.2064C44.7065 16.6813 41.0252 13 36.5002 13C31.9751 13 28.2938 16.6813 28.2938 21.2064V22.6984Z" fill="#8C8FFF"/>
<path d="M58.1348 38.365V57.0158C58.1348 58.6639 56.7988 60 55.1506 60H17.8491C16.2009 60 14.8649 58.6639 14.8649 57.0158V38.365H58.1348Z" fill="#787BEB"/>
<path d="M49.1824 46.5714H23.8173C20.2511 46.5714 17.0541 44.9912 14.8649 42.5037V38.365H58.1348V57.0158C58.1348 58.6639 56.7988 60 55.1506 60H17.8491C16.2009 60 14.8649 58.6639 14.8649 57.0158H46.9443C50.2404 57.0158 52.9125 54.3437 52.9125 51.0476V47.8674C52.9125 46.9466 52.0874 46.2446 51.18 46.4007C50.5307 46.5125 49.8635 46.5714 49.1824 46.5714Z" fill="#787BEB"/>
<path d="M23.8174 45.0794H49.1825C54.9508 45.0794 59.627 40.4032 59.627 34.6349V25.6825C59.627 24.8584 58.9589 24.1904 58.1349 24.1904H14.8651C14.041 24.1904 13.373 24.8584 13.373 25.6825V34.6349C13.373 40.4032 18.0491 45.0794 23.8174 45.0794Z" fill="#8C8FFF"/>
<path d="M43.2145 21.2064H44.7066C45.1187 21.2064 45.4526 21.5404 45.4526 21.9525V24.1906H42.4685V21.9525C42.4685 21.5404 42.8025 21.2064 43.2145 21.2064Z" fill="#8C8FFF"/>
<path d="M28.2936 21.2064H29.7857C30.1978 21.2064 30.5317 21.5404 30.5317 21.9525V24.1906H27.5476V21.9525C27.5476 21.5404 27.8817 21.2064 28.2936 21.2064Z" fill="#8C8FFF"/>
<path d="M22.3255 30.1588H51.4208C53.8929 30.1588 55.897 28.1548 55.897 25.6826V24.1906H17.8494V25.6826C17.8493 28.1547 19.8534 30.1588 22.3255 30.1588Z" fill="#8C8FFF"/>
<path d="M26.4288 48.8095H27.1749C27.5868 48.8095 27.9209 48.4754 27.9209 48.0634V40.6031C27.9209 40.1911 27.5868 39.8571 27.1749 39.8571H26.4288C26.0168 39.8571 25.6828 40.1911 25.6828 40.6031V48.0634C25.6828 48.4755 26.0168 48.8095 26.4288 48.8095Z" fill="#8C8FFF"/>
<path d="M25.3094 47.3175H28.2936C29.1176 47.3175 29.7856 46.6495 29.7856 45.8254V44.7064H23.8174V45.8254C23.8174 46.6495 24.4854 47.3175 25.3094 47.3175Z" fill="#E1A546"/>
<path d="M24.9365 45.8254H28.6666C29.2847 45.8254 29.7856 45.3244 29.7856 44.7064C29.7856 44.0883 29.2846 43.5874 28.6666 43.5874H24.9365C24.3184 43.5874 23.8175 44.0884 23.8175 44.7064C23.8174 45.3244 24.3184 45.8254 24.9365 45.8254Z" fill="#FFC850"/>
<path d="M45.8253 48.8095H46.5713C46.9833 48.8095 47.3174 48.4754 47.3174 48.0634V40.6031C47.3174 40.1911 46.9833 39.8571 46.5713 39.8571H45.8253C45.4133 39.8571 45.0793 40.1911 45.0793 40.6031V48.0634C45.0793 48.4755 45.4133 48.8095 45.8253 48.8095Z" fill="#8C8FFF"/>
<path d="M44.7064 47.3175H47.6906C48.5146 47.3175 49.1826 46.6495 49.1826 45.8254V44.7064H43.2144V45.8254C43.2144 46.6495 43.8823 47.3175 44.7064 47.3175Z" fill="#E1A546"/>
<path d="M44.3334 45.8254H48.0636C48.6817 45.8254 49.1826 45.3244 49.1826 44.7064C49.1826 44.0883 48.6816 43.5874 48.0636 43.5874H44.3334C43.7154 43.5874 43.2144 44.0884 43.2144 44.7064C43.2145 45.3244 43.7155 45.8254 44.3334 45.8254Z" fill="#FFC850"/>
</g>
<defs>
<clipPath id="clip0_21_4774">
<rect width="47" height="47" fill="white" transform="matrix(-1 0 0 1 60 13)"/>
</clipPath>
</defs>
</svg>
