<svg width="73" height="73" viewBox="0 0 73 73" fill="none" xmlns="http://www.w3.org/2000/svg">
<circle cx="36.5" cy="36.5" r="36.5" fill="#F3F3FF"/>
<path d="M62 62.4001V62.5443C57 69 46.324 73 36.5 73C26.676 73 17 69 11 62.5443V62.4001C11 51.9106 17.9537 42.9444 27.683 39.505C30.4309 38.5315 33.4016 38 36.5 38C39.5984 38 42.5691 38.5315 45.3187 39.505C55.048 42.9461 62 51.9106 62 62.4001Z" fill="#8C8FFF"/>
<path d="M52 26.9997C52 35.2701 45.048 42 36.5 42C27.9537 42 21 35.2701 21 26.9997C21 18.7293 27.9537 12 36.5 12C45.048 12 52 18.7293 52 26.9997Z" fill="#FFDBA9"/>
</svg>
