<svg width="13" height="12" viewBox="0 0 13 12" fill="none" xmlns="http://www.w3.org/2000/svg">
<path d="M3.36836 6.70836L7.04336 10.1792C7.19336 10.3209 7.26523 10.4861 7.25898 10.675C7.25273 10.8639 7.17461 11.0292 7.02461 11.1709C6.87461 11.3007 6.69961 11.3686 6.49961 11.3745C6.29961 11.3804 6.12461 11.3125 5.97461 11.1709L1.02461 6.49586C0.949609 6.42502 0.896484 6.34829 0.865234 6.26565C0.833984 6.18301 0.818359 6.09447 0.818359 6.00002C0.818359 5.90558 0.833984 5.81704 0.865234 5.7344C0.896484 5.65176 0.949609 5.57502 1.02461 5.50419L5.97461 0.829191C6.11211 0.69933 6.28398 0.634399 6.49023 0.634399C6.69648 0.634399 6.87461 0.69933 7.02461 0.829191C7.17461 0.970858 7.24961 1.13909 7.24961 1.33388C7.24961 1.52867 7.17461 1.6969 7.02461 1.83857L3.36836 5.29169H11.7496C11.9621 5.29169 12.1402 5.35957 12.284 5.49534C12.4277 5.6311 12.4996 5.79933 12.4996 6.00002C12.4996 6.20072 12.4277 6.36895 12.284 6.50471C12.1402 6.64048 11.9621 6.70836 11.7496 6.70836H3.36836Z" fill="#8C8FFF"/>
</svg>
