<svg width="31" height="31" viewBox="0 0 31 31" fill="none" xmlns="http://www.w3.org/2000/svg">
<mask id="mask0_22_7075" style="mask-type:alpha" maskUnits="userSpaceOnUse" x="0" y="0" width="31" height="31">
<rect x="0.5" y="0.5" width="30" height="30" fill="#D9D9D9"/>
</mask>
<g mask="url(#mask0_22_7075)">
<path d="M8 18C7.3125 18 6.72396 17.7552 6.23438 17.2656C5.74479 16.776 5.5 16.1875 5.5 15.5C5.5 14.8125 5.74479 14.224 6.23438 13.7344C6.72396 13.2448 7.3125 13 8 13C8.6875 13 9.27604 13.2448 9.76562 13.7344C10.2552 14.224 10.5 14.8125 10.5 15.5C10.5 16.1875 10.2552 16.776 9.76562 17.2656C9.27604 17.7552 8.6875 18 8 18ZM15.5 18C14.8125 18 14.224 17.7552 13.7344 17.2656C13.2448 16.776 13 16.1875 13 15.5C13 14.8125 13.2448 14.224 13.7344 13.7344C14.224 13.2448 14.8125 13 15.5 13C16.1875 13 16.776 13.2448 17.2656 13.7344C17.7552 14.224 18 14.8125 18 15.5C18 16.1875 17.7552 16.776 17.2656 17.2656C16.776 17.7552 16.1875 18 15.5 18ZM23 18C22.3125 18 21.724 17.7552 21.2344 17.2656C20.7448 16.776 20.5 16.1875 20.5 15.5C20.5 14.8125 20.7448 14.224 21.2344 13.7344C21.724 13.2448 22.3125 13 23 13C23.6875 13 24.276 13.2448 24.7656 13.7344C25.2552 14.224 25.5 14.8125 25.5 15.5C25.5 16.1875 25.2552 16.776 24.7656 17.2656C24.276 17.7552 23.6875 18 23 18Z" fill="#A0A0A0"/>
</g>
</svg>
