<svg width="31" height="31" viewBox="0 0 31 31" fill="none" xmlns="http://www.w3.org/2000/svg">
<mask id="mask0_22_7069" style="mask-type:alpha" maskUnits="userSpaceOnUse" x="0" y="0" width="31" height="31">
<rect x="0.5" y="0.5" width="30" height="30" fill="#D9D9D9"/>
</mask>
<g mask="url(#mask0_22_7069)">
<path d="M6.75 26.75C6.0625 26.75 5.47396 26.5052 4.98438 26.0156C4.49479 25.526 4.25 24.9375 4.25 24.25V11.75C4.25 11.0625 4.49479 10.474 4.98438 9.98438C5.47396 9.49479 6.0625 9.25 6.75 9.25H9.25V6.75C9.25 6.0625 9.49479 5.47396 9.98438 4.98438C10.474 4.49479 11.0625 4.25 11.75 4.25H19.25C19.9375 4.25 20.526 4.49479 21.0156 4.98438C21.5052 5.47396 21.75 6.0625 21.75 6.75V14.25H24.25C24.9375 14.25 25.526 14.4948 26.0156 14.9844C26.5052 15.474 26.75 16.0625 26.75 16.75V24.25C26.75 24.9375 26.5052 25.526 26.0156 26.0156C25.526 26.5052 24.9375 26.75 24.25 26.75H16.75V21.75H14.25V26.75H6.75ZM6.75 24.25H9.25V21.75H6.75V24.25ZM6.75 19.25H9.25V16.75H6.75V19.25ZM6.75 14.25H9.25V11.75H6.75V14.25ZM11.75 19.25H14.25V16.75H11.75V19.25ZM11.75 14.25H14.25V11.75H11.75V14.25ZM11.75 9.25H14.25V6.75H11.75V9.25ZM16.75 19.25H19.25V16.75H16.75V19.25ZM16.75 14.25H19.25V11.75H16.75V14.25ZM16.75 9.25H19.25V6.75H16.75V9.25ZM21.75 24.25H24.25V21.75H21.75V24.25ZM21.75 19.25H24.25V16.75H21.75V19.25Z" fill="#A0A0A0"/>
</g>
</svg>
