<svg width="16" height="20" viewBox="0 0 16 20" fill="none" xmlns="http://www.w3.org/2000/svg">
<path d="M7.1 13.0004H8.9C9.05 13.0004 9.17917 12.9379 9.2875 12.8129C9.39583 12.6879 9.43333 12.5504 9.4 12.4004L8.925 9.77539C9.25833 9.60872 9.52083 9.36706 9.7125 9.05039C9.90417 8.73372 10 8.38372 10 8.00039C10 7.45039 9.80417 6.97956 9.4125 6.58789C9.02083 6.19622 8.55 6.00039 8 6.00039C7.45 6.00039 6.97917 6.19622 6.5875 6.58789C6.19583 6.97956 6 7.45039 6 8.00039C6 8.38372 6.09583 8.73372 6.2875 9.05039C6.47917 9.36706 6.74167 9.60872 7.075 9.77539L6.6 12.4004C6.56667 12.5504 6.60417 12.6879 6.7125 12.8129C6.82083 12.9379 6.95 13.0004 7.1 13.0004ZM8 19.9004C7.88333 19.9004 7.775 19.8921 7.675 19.8754C7.575 19.8587 7.475 19.8337 7.375 19.8004C5.125 19.0504 3.33333 17.6629 2 15.6379C0.666667 13.6129 0 11.4337 0 9.10039V4.37539C0 3.95872 0.120833 3.58372 0.3625 3.25039C0.604167 2.91706 0.916667 2.67539 1.3 2.52539L7.3 0.275391C7.53333 0.192057 7.76667 0.150391 8 0.150391C8.23333 0.150391 8.46667 0.192057 8.7 0.275391L14.7 2.52539C15.0833 2.67539 15.3958 2.91706 15.6375 3.25039C15.8792 3.58372 16 3.95872 16 4.37539V9.10039C16 11.4337 15.3333 13.6129 14 15.6379C12.6667 17.6629 10.875 19.0504 8.625 19.8004C8.525 19.8337 8.425 19.8587 8.325 19.8754C8.225 19.8921 8.11667 19.9004 8 19.9004ZM8 17.9004C9.73333 17.3504 11.1667 16.2504 12.3 14.6004C13.4333 12.9504 14 11.1171 14 9.10039V4.37539L8 2.12539L2 4.37539V9.10039C2 11.1171 2.56667 12.9504 3.7 14.6004C4.83333 16.2504 6.26667 17.3504 8 17.9004Z" fill="#8C8FFF"/>
</svg>
