<svg width="16" height="16" viewBox="0 0 16 16" fill="none" xmlns="http://www.w3.org/2000/svg">
<mask id="mask0_2_4001" style="mask-type:alpha" maskUnits="userSpaceOnUse" x="0" y="0" width="16" height="16">
<rect width="16" height="16" fill="#D9D9D9"/>
</mask>
<g mask="url(#mask0_2_4001)">
<path d="M3.89992 11.4C4.46659 10.9666 5.09992 10.625 5.79992 10.375C6.49992 10.125 7.23325 9.99998 7.99992 9.99998C8.76658 9.99998 9.49992 10.125 10.1999 10.375C10.8999 10.625 11.5333 10.9666 12.0999 11.4C12.4888 10.9444 12.7916 10.4278 13.0083 9.84998C13.2249 9.2722 13.3333 8.65553 13.3333 7.99998C13.3333 6.5222 12.8138 5.26387 11.7749 4.22498C10.736 3.18609 9.4777 2.66665 7.99992 2.66665C6.52214 2.66665 5.26381 3.18609 4.22492 4.22498C3.18603 5.26387 2.66659 6.5222 2.66659 7.99998C2.66659 8.65553 2.77492 9.2722 2.99159 9.84998C3.20825 10.4278 3.51103 10.9444 3.89992 11.4ZM7.99992 8.66665C7.34436 8.66665 6.79158 8.44165 6.34159 7.99165C5.89159 7.54165 5.66658 6.98887 5.66658 6.33331C5.66658 5.67776 5.89159 5.12498 6.34159 4.67498C6.79158 4.22498 7.34436 3.99998 7.99992 3.99998C8.65547 3.99998 9.20825 4.22498 9.65825 4.67498C10.1083 5.12498 10.3333 5.67776 10.3333 6.33331C10.3333 6.98887 10.1083 7.54165 9.65825 7.99165C9.20825 8.44165 8.65547 8.66665 7.99992 8.66665ZM7.99992 14.6666C7.0777 14.6666 6.21103 14.4916 5.39992 14.1416C4.58881 13.7916 3.88325 13.3166 3.28325 12.7166C2.68325 12.1166 2.20825 11.4111 1.85825 10.6C1.50825 9.78887 1.33325 8.9222 1.33325 7.99998C1.33325 7.07776 1.50825 6.21109 1.85825 5.39998C2.20825 4.58887 2.68325 3.88331 3.28325 3.28331C3.88325 2.68331 4.58881 2.20831 5.39992 1.85831C6.21103 1.50831 7.0777 1.33331 7.99992 1.33331C8.92214 1.33331 9.78881 1.50831 10.5999 1.85831C11.411 2.20831 12.1166 2.68331 12.7166 3.28331C13.3166 3.88331 13.7916 4.58887 14.1416 5.39998C14.4916 6.21109 14.6666 7.07776 14.6666 7.99998C14.6666 8.9222 14.4916 9.78887 14.1416 10.6C13.7916 11.4111 13.3166 12.1166 12.7166 12.7166C12.1166 13.3166 11.411 13.7916 10.5999 14.1416C9.78881 14.4916 8.92214 14.6666 7.99992 14.6666ZM7.99992 13.3333C8.58881 13.3333 9.14436 13.2472 9.66658 13.075C10.1888 12.9028 10.6666 12.6555 11.0999 12.3333C10.6666 12.0111 10.1888 11.7639 9.66658 11.5916C9.14436 11.4194 8.58881 11.3333 7.99992 11.3333C7.41103 11.3333 6.85547 11.4194 6.33325 11.5916C5.81103 11.7639 5.33325 12.0111 4.89992 12.3333C5.33325 12.6555 5.81103 12.9028 6.33325 13.075C6.85547 13.2472 7.41103 13.3333 7.99992 13.3333ZM7.99992 7.33331C8.28881 7.33331 8.5277 7.23887 8.71658 7.04998C8.90547 6.86109 8.99992 6.6222 8.99992 6.33331C8.99992 6.04442 8.90547 5.80553 8.71658 5.61665C8.5277 5.42776 8.28881 5.33331 7.99992 5.33331C7.71103 5.33331 7.47214 5.42776 7.28325 5.61665C7.09436 5.80553 6.99992 6.04442 6.99992 6.33331C6.99992 6.6222 7.09436 6.86109 7.28325 7.04998C7.47214 7.23887 7.71103 7.33331 7.99992 7.33331Z" fill="#A0A0A0"/>
</g>
</svg>
